<svg xmlns="http://www.w3.org/2000/svg" viewBox="0 0 64 64">
  <rect width="64" height="64" rx="10" fill="#111827"/>
  <!-- Cup body -->
  <path d="M20 10 h24 v18 c0 10 -6 16 -12 18 c-6 -2 -12 -8 -12 -18 Z" fill="#f0c500"/>
  <!-- Cup shine -->
  <path d="M23 12 h6 v14 c0 6 -2 10 -4 12 c-2 -3 -2 -7 -2 -12 Z" fill="rgba(255,255,255,0.18)"/>
  <!-- Left handle -->
  <path d="M20 14 c-6 0 -9 4 -9 8 c0 4 3 7 9 8" fill="none" stroke="#f0c500" stroke-width="3.5" stroke-linecap="round"/>
  <!-- Right handle -->
  <path d="M44 14 c6 0 9 4 9 8 c0 4 -3 7 -9 8" fill="none" stroke="#f0c500" stroke-width="3.5" stroke-linecap="round"/>
  <!-- Stem -->
  <rect x="29" y="46" width="6" height="7" rx="1" fill="#f0c500"/>
  <!-- Base plate -->
  <rect x="22" y="53" width="20" height="4" rx="2" fill="#f0c500"/>
  <!-- Base shine -->
  <rect x="24" y="54" width="10" height="1.5" rx="1" fill="rgba(255,255,255,0.22)"/>
</svg>
